<svg width="334" height="27" viewBox="0 0 334 27" fill="none" xmlns="http://www.w3.org/2000/svg">
<path d="M0.689442 9.66417C0.567757 10.0402 0.405498 10.6043 0.283813 10.9803C0.446073 10.4163 0.851741 9.92739 1.37909 9.66417C2.47437 8.348 4.17816 7.59594 5.96309 7.59594C2.67721 6.73104 1.66304 7.70874 1.37909 8.19759C1.09511 8.68644 0.851741 9.17533 0.689442 9.66417Z" fill="#2A72E5"/>
<path d="M4.09717 5.00134L3.61035 5.41501C4.17828 5.00134 5.07073 5.07657 6.49056 5.71583C6.81508 5.18937 7.18018 4.73813 7.62642 4.36208C6.93677 3.91081 6.28773 3.49714 5.84149 3.68517C5.23298 4.09883 4.62452 4.51249 4.09717 5.00134Z" fill="#2A72E5"/>
<path d="M10.8309 1.46636C10.3442 1.65438 9.6545 1.88002 9.16772 2.06805C9.41113 2.33126 9.6545 2.59451 9.85734 2.89533C10.5875 2.51932 11.3989 2.18085 12.1696 1.91763C12.0479 1.39117 12.0074 1.12792 12.1696 1.05273C11.8045 1.16553 11.2366 1.31595 10.8309 1.46636Z" fill="#2A72E5"/>
<path d="M18.985 0.0376124C18.2143 0.112837 17.2002 0.188025 16.4294 0.26325C16.0237 0.338437 15.8615 0.48885 15.6586 1.05292C16.7134 0.8649 17.7275 0.7521 18.7823 0.676875C19.1068 0.26325 19.5936 0 20.1615 0L18.985 0.0376124Z" fill="#2A72E5"/>
<path d="M27.5036 0.451003C26.7734 0.338166 25.8405 0.225366 25.1103 0.150141C24.3801 0.0749538 23.65 0.225366 23.082 0.601416C24.1773 0.638991 25.2726 0.751828 26.368 0.902241C27.1791 0.563804 28.0715 0.488579 28.9235 0.676603C28.4773 0.638991 27.9093 0.526191 27.5036 0.451003Z" fill="#2A72E5"/>
<path d="M35.1304 2.70723C34.6032 2.48159 33.8731 2.18077 33.3455 1.95513C32.2909 1.54147 31.1145 1.46628 30.019 1.69188C30.9114 1.95513 31.7634 2.25595 32.5749 2.59439C34.0353 2.44398 35.5361 2.7448 36.7529 3.4969C36.2663 3.27127 35.6579 2.93283 35.1304 2.70723Z" fill="#2A72E5"/>
<path d="M42.7569 10.0778C42.3916 9.13763 41.905 8.23512 41.2961 7.40783L40.9312 6.91898C39.5926 5.18918 37.483 4.09865 35.1707 4.06104C35.6982 4.43708 36.2257 4.88832 36.631 5.37721C40.485 5.86606 43.1623 9.02483 43.4058 13.3869C43.3653 12.2964 43.1623 11.1683 42.7569 10.0778Z" fill="#2A72E5"/>
<path d="M37.2399 23.4654C37.9701 23.0143 38.6598 22.5253 39.3496 21.9612C39.5927 21.7355 39.9171 21.4347 40.1607 21.2091C44.988 16.0197 42.7974 8.574 37.6052 7.22021C37.6457 7.44585 37.6861 7.7091 37.6861 7.9347C37.6861 7.97231 37.6861 8.00993 37.6861 8.04754C37.6861 8.27314 37.6457 8.53639 37.6052 8.76199C43.1219 11.0935 42.5948 20.3066 36.7124 23.7661L37.2399 23.4654Z" fill="#2A72E5"/>
<path d="M29.9785 26.2103C30.7087 26.0224 31.6415 25.7966 32.3717 25.5709C39.4709 23.0891 40.6068 13.0112 36.6311 10.6045C36.1849 11.0933 35.6982 11.507 35.1707 11.883C38.5376 15.305 35.0898 25.0448 28.7612 26.436L29.9785 26.2103Z" fill="#2A72E5"/>
<path d="M21.7434 27C22.3925 27 23.2849 27 23.9745 26.9625C29.8567 26.3985 34.0348 16.3956 32.5744 13.2368C31.7633 13.5753 30.8709 13.8385 30.019 14.0641C30.019 18.0878 24.1774 27.0375 19.999 26.9246C20.5264 26.9625 21.216 27 21.7434 27Z" fill="#2A72E5"/>
<path d="M13.1841 25.9473C13.8332 26.0976 14.7256 26.2859 15.3747 26.3988C17.8492 26.5491 24.0153 18.8401 26.2872 14.7412C25.1917 14.854 24.0964 14.9668 23.0011 14.9668C21.2162 16.5838 16.5105 21.6228 15.5775 22.6004C13.1841 25.1575 12.2917 25.6465 12.0077 25.609L13.1841 25.9473Z" fill="#2A72E5"/>
<path d="M6.04434 23.052C6.77452 23.5031 7.50471 23.8792 8.27547 24.2553L8.35662 24.2928C8.47831 23.6535 14.3604 17.148 18.8633 14.8541C17.8086 14.7413 16.7538 14.5909 15.7397 14.3652C10.3443 16.2831 4.82733 22.1493 5.76035 22.8637L6.04434 23.052Z" fill="#2A72E5"/>
<path d="M2.10944 19.5545C2.35281 19.8553 2.71794 20.3066 3.00188 20.6074C1.78488 18.8776 6.89627 14.4403 12.2104 13.3874C11.3991 13.0866 10.6284 12.7481 9.89817 12.3721C5.03019 12.8609 0.365081 16.0573 1.33868 18.276C1.54151 18.6896 1.86603 19.2161 2.10944 19.5545Z" fill="#2A72E5"/>
<path d="M0 13.2745C0 13.3497 0 13.4249 0 13.5002C0.0405749 13.8762 0.0405751 14.3651 0.0811096 14.7411C-0.0405747 12.2968 3.93492 10.7174 7.62647 10.8302C7.18023 10.4166 6.77456 9.92772 6.49061 9.43887C3.40757 9.06282 1.70378 9.81492 0.811337 10.4918C0.283984 11.3567 0.0405749 12.2968 0 13.2745Z" fill="#2A72E5"/>
<path d="M64.9477 5.71582H52.4532V8.04731H57.2401V21.2089H60.2013V8.04731H64.9477V5.71582Z" fill="white"/>
<path d="M74.4402 10.7545C73.9131 10.3033 73.2638 9.92721 72.6149 9.73922C71.0328 9.25034 69.3693 9.25034 67.7876 9.73922C67.0979 9.96482 66.4894 10.3033 65.9619 10.7545C65.4344 11.2058 65.0291 11.7698 64.7855 12.4091C64.5016 13.1236 64.3393 13.9133 64.3798 14.6654V16.0192C64.3798 16.7713 64.5016 17.5609 64.7855 18.2754C65.0291 18.9147 65.4344 19.4788 65.9619 19.93C66.4894 20.3813 67.0979 20.7573 67.7876 20.9453C69.3693 21.4342 71.0328 21.4342 72.6149 20.9453C73.3043 20.7197 73.9131 20.3813 74.4402 19.93C74.9677 19.4411 75.3735 18.8771 75.6166 18.2754C75.9006 17.5609 76.0628 16.7713 76.0223 16.0192V14.6654C76.0223 13.8757 75.9006 13.1236 75.6166 12.4091C75.3735 11.8075 74.9677 11.2434 74.4402 10.7545ZM71.3572 18.8395C70.5866 19.0651 69.7751 19.0651 69.0449 18.8395C68.7205 18.7267 68.396 18.5762 68.112 18.313C67.8281 18.0498 67.625 17.749 67.5036 17.3729C67.341 16.9217 67.2601 16.4704 67.3005 15.9815V14.703C67.2196 13.8757 67.5036 13.0484 68.0712 12.4091C69.3289 11.5066 71.0732 11.5066 72.3309 12.4091C72.9394 13.0484 73.2233 13.8757 73.1016 14.703V15.9815C73.1016 16.4704 73.0203 16.9217 72.8581 17.3729C72.7367 17.7113 72.5336 18.0498 72.2496 18.313C72.0061 18.5387 71.6817 18.7267 71.3572 18.8395Z" fill="white"/>
<path d="M89.4092 9.6267H85.7178L81.1336 14.44V5.71582H78.2129V21.1713H81.1336V17.7117L82.5131 16.2827L85.8801 21.1336H89.6123L84.5819 14.3649L89.4092 9.6267Z" fill="white"/>
<path d="M99.267 10.3413C98.78 10.0028 98.2529 9.77718 97.6849 9.62677C96.1028 9.21311 94.3988 9.28833 92.8576 9.85241C92.0865 10.1532 91.3972 10.4917 90.7075 10.9429L90.667 10.9805L92.1274 12.9736L92.1678 12.936C93.1416 12.1839 94.3988 11.8078 95.6565 11.8078C96.265 11.7702 96.8329 11.9206 97.3196 12.2591C97.6849 12.6727 97.8876 13.2368 97.8471 13.7633V14.1769H95.0481C94.3179 14.1769 93.5469 14.2521 92.8167 14.4402C92.2896 14.5906 91.7621 14.8162 91.3563 15.117C90.9914 15.3802 90.7075 15.7563 90.5452 16.17C90.383 16.5836 90.3017 17.0349 90.3017 17.4861V18.163C90.2613 19.0655 90.667 19.968 91.4377 20.5697C92.3301 21.1713 93.466 21.4722 94.5611 21.4346C94.9264 21.4346 95.2508 21.397 95.6161 21.3218C95.981 21.2466 96.3054 21.1337 96.6707 21.0209C96.9952 20.9081 97.2791 20.7201 97.5631 20.5321C97.7658 20.3817 97.928 20.1936 98.0906 19.968L98.1311 21.2842H100.768V13.1616C100.768 12.6351 100.646 12.0711 100.403 11.5822C100.078 11.0557 99.7132 10.6797 99.267 10.3413ZM97.8067 16.2451V16.5084C97.8067 16.8468 97.8067 17.2229 97.7253 17.5613C97.6849 17.8621 97.5227 18.0878 97.2791 18.3134C96.5894 18.8775 95.6566 19.1407 94.7233 19.0655C94.2771 19.1031 93.8309 18.9903 93.5064 18.7647C93.2225 18.5766 93.0602 18.2382 93.1007 17.8998V17.6365C93.1007 17.2605 93.2225 16.8844 93.5469 16.5836C93.9935 16.2828 94.5206 16.1323 95.0886 16.2076L97.8067 16.2451Z" fill="white"/>
<path d="M119.712 10.4912C119.306 10.1151 118.86 9.8519 118.333 9.66388C117.806 9.47585 117.238 9.40066 116.67 9.40066C115.859 9.36305 115.088 9.51346 114.357 9.8519C113.749 10.1527 113.221 10.604 112.857 11.1305C112.613 10.604 112.167 10.1527 111.599 9.88951C110.95 9.55108 110.26 9.40066 109.53 9.40066C108.8 9.40066 108.07 9.55108 107.421 9.8519C106.853 10.1527 106.407 10.5664 106.123 11.0552V9.62626H103.364V21.2084H106.285V14.1012C106.244 13.4619 106.447 12.8226 106.893 12.3714C107.34 11.9954 107.907 11.7697 108.516 11.8073C108.8 11.8073 109.084 11.845 109.368 11.9201C109.652 11.9954 109.855 12.1458 110.058 12.3338C110.26 12.5594 110.422 12.8226 110.544 13.0859C110.666 13.4619 110.747 13.8756 110.706 14.2892V21.246H113.627V14.2516C113.627 13.838 113.668 13.4619 113.83 13.0859C113.952 12.8226 114.114 12.5594 114.357 12.3338C114.56 12.1458 114.804 12.033 115.088 11.9577C115.615 11.8073 116.183 11.8073 116.751 11.9577C117.035 12.033 117.238 12.1458 117.44 12.3338C117.684 12.5594 117.846 12.8226 117.927 13.0859C118.049 13.4995 118.13 13.9132 118.09 14.3644V21.246H121.01V13.8004C121.01 13.1611 120.889 12.4842 120.645 11.8826C120.442 11.3185 120.118 10.8672 119.712 10.4912Z" fill="white"/>
<path d="M132.085 10.3413C131.598 10.0028 131.071 9.77718 130.503 9.62677C128.921 9.21311 127.217 9.28833 125.676 9.85241C124.905 10.1532 124.215 10.4917 123.525 10.9429L123.485 10.9805L124.945 12.9736L124.986 12.936C125.96 12.1839 127.217 11.8078 128.475 11.8078C129.083 11.7702 129.651 11.9206 130.138 12.2591C130.503 12.6727 130.706 13.2368 130.666 13.7633V14.1769H127.866C127.136 14.1769 126.365 14.2521 125.635 14.4402C125.108 14.5906 124.58 14.8162 124.175 15.117C123.809 15.3802 123.525 15.7563 123.363 16.17C123.201 16.5836 123.12 17.0349 123.12 17.4861V18.163C123.079 19.0655 123.485 19.968 124.256 20.5697C125.148 21.1713 126.284 21.4722 127.379 21.4346C127.744 21.4346 128.069 21.397 128.434 21.3218C128.799 21.2466 129.124 21.1337 129.489 21.0209C129.814 20.9081 130.098 20.7201 130.382 20.5321C130.584 20.3817 130.746 20.1936 130.909 19.968L130.949 21.2842H133.586V13.1616C133.586 12.6351 133.465 12.0711 133.221 11.5822C132.897 11.0557 132.531 10.6797 132.085 10.3413ZM130.625 16.2451V16.5084C130.625 16.8468 130.625 17.2229 130.544 17.5613C130.503 17.8621 130.341 18.0878 130.098 18.3134C129.408 18.8775 128.475 19.1407 127.542 19.0655C127.095 19.1031 126.649 18.9903 126.325 18.7647C126.041 18.5766 125.879 18.2382 125.919 17.8998V17.6365C125.919 17.2605 126.041 16.8844 126.365 16.5836C126.812 16.2828 127.339 16.1323 127.907 16.2076L130.625 16.2451Z" fill="white"/>
<path d="M147.378 9.6267H143.687L139.103 14.44V5.71582H136.182V21.1713H139.103V17.7117L140.482 16.2827L143.849 21.1336H147.581L142.551 14.3649L147.378 9.6267Z" fill="white"/>
<path d="M163.28 15.2297L157.763 5.75342H154.396V21.2088H157.155V10.5292C157.155 10.5292 157.885 11.7325 158.088 12.071L163.646 21.2088H167.013V5.75342H164.254V16.9219C164.254 16.8843 163.443 15.493 163.28 15.2297Z" fill="white"/>
<path d="M178.98 10.6416C178.493 10.1904 177.884 9.88952 177.235 9.70153C176.546 9.4759 175.775 9.3631 175.045 9.40067C174.274 9.40067 173.544 9.51351 172.814 9.70153C172.124 9.88952 171.515 10.228 171.029 10.6792C170.501 11.1681 170.095 11.7322 169.812 12.3714C169.487 13.1611 169.365 13.9508 169.365 14.7781V15.9815C169.325 16.884 169.487 17.7489 169.852 18.5762C170.136 19.2154 170.583 19.7795 171.151 20.2308C171.678 20.6444 172.327 20.9453 172.976 21.0957C173.666 21.2837 174.355 21.3589 175.085 21.3589C176.1 21.3965 177.114 21.2837 178.087 21.0205C178.858 20.8324 179.547 20.5316 180.197 20.1179H180.237L179.02 18.1625H178.98C178.412 18.4634 177.803 18.7266 177.195 18.877C176.546 19.0274 175.897 19.1026 175.248 19.1026C174.436 19.1402 173.625 18.9146 173.016 18.4258C172.489 17.8993 172.205 17.1472 172.246 16.3951H180.562V14.4773C180.562 13.7252 180.44 12.9731 180.156 12.2586C179.872 11.657 179.467 11.0929 178.98 10.6416ZM175.004 11.6194C175.41 11.6194 175.856 11.6569 176.262 11.8074C176.586 11.9202 176.87 12.0706 177.114 12.2962C177.316 12.4843 177.479 12.7475 177.6 13.0107C177.682 13.2739 177.763 13.5748 177.763 13.8756V14.3269H172.246V13.9132C172.246 13.3115 172.489 12.7099 172.935 12.2586C173.463 11.8074 174.234 11.5817 175.004 11.6194Z" fill="white"/>
<path d="M189.283 18.727C189 18.8398 188.675 18.915 188.391 18.9902C188.107 19.0278 187.823 19.0654 187.539 19.0654C187.215 19.0654 186.931 18.9902 186.687 18.8398C186.444 18.5766 186.322 18.2381 186.363 17.8997V11.883H189.487V9.62669H186.363V5.71582L183.442 6.69352V9.62669H181.454V11.883H183.442V17.8997C183.442 18.3885 183.482 18.8774 183.604 19.3662C183.726 19.7799 183.929 20.1559 184.213 20.4568C184.537 20.7576 184.943 21.0208 185.389 21.1336C185.957 21.284 186.565 21.3968 187.174 21.3593C187.701 21.3593 188.188 21.3217 188.675 21.2089C189.04 21.1336 189.405 21.0208 189.73 20.8704H189.77L189.324 18.6894L189.283 18.727Z" fill="white"/>
<path d="M202.305 18.5387L200.155 9.66408V9.62646H197.437L195.206 18.5387H195.165L193.34 9.66408V9.62646H190.216L193.299 21.171V21.2086H196.666L198.695 13.1237H198.735L200.763 21.2086H204.131L207.214 9.70169V9.66408H204.293L202.305 18.5387Z" fill="white"/>
<path d="M218.167 10.7545C217.639 10.3033 216.99 9.92721 216.341 9.73922C214.8 9.25034 213.096 9.25034 211.514 9.73922C210.824 9.96482 210.216 10.3033 209.688 10.7545C209.161 11.2058 208.755 11.7698 208.512 12.4091C208.228 13.1236 208.066 13.9133 208.106 14.6654V16.0192C208.106 16.7713 208.228 17.5609 208.512 18.2754C208.755 18.9147 209.161 19.4788 209.688 19.93C210.216 20.3813 210.824 20.7573 211.514 20.9453C213.096 21.4342 214.759 21.4342 216.341 20.9453C217.031 20.7197 217.639 20.3813 218.167 19.93C218.694 19.4411 219.1 18.8771 219.343 18.2754C219.627 17.5609 219.789 16.7713 219.749 16.0192V14.6654C219.749 13.8757 219.627 13.1236 219.343 12.4091C219.1 11.8075 218.694 11.2434 218.167 10.7545ZM215.084 18.8395C214.313 19.0651 213.501 19.0651 212.771 18.8395C212.447 18.7267 212.122 18.5762 211.838 18.313C211.554 18.0498 211.352 17.749 211.23 17.3729C211.068 16.9217 210.986 16.4704 210.986 15.9815V14.703C210.905 13.8757 211.189 13.0484 211.757 12.4091C213.015 11.5066 214.759 11.5066 216.017 12.4091C216.625 13.0484 216.909 13.8757 216.787 14.703V15.9815C216.787 16.4704 216.706 16.9217 216.584 17.3729C216.463 17.7113 216.26 18.0498 215.976 18.313C215.733 18.5387 215.408 18.7267 215.084 18.8395Z" fill="white"/>
<path d="M229.201 9.43884C228.876 9.40122 228.552 9.36361 228.268 9.36361C227.497 9.326 226.727 9.51402 226.077 9.89007C225.55 10.2285 225.104 10.7174 224.779 11.2438V9.58925H221.98V21.1714H224.901V14.3274C224.901 13.989 224.982 13.6129 225.104 13.3121C225.225 13.0112 225.428 12.748 225.671 12.5224C225.915 12.2967 226.199 12.1087 226.523 11.9959C226.848 11.8831 227.213 11.8079 227.619 11.8079C227.903 11.8079 228.227 11.8079 228.511 11.8831C228.755 11.9207 228.958 11.9959 229.16 12.0711H229.201L230.053 9.62683H230.012C229.728 9.55164 229.444 9.47641 229.201 9.43884Z" fill="white"/>
<path d="M237.76 14.44L242.628 9.6267H238.937L234.352 14.44V5.71582H231.432V21.1713H234.352V17.7117L235.732 16.2827L239.099 21.1336H242.831L237.76 14.44Z" fill="white"/>
<path d="M324.566 18.6194L321.12 10.4743C320.889 9.93847 320.658 9.25255 320.265 8.13798V21.1916H317.513V5.7373H321.722L325.814 15.34L329.745 5.7373H334V21.1916H331.202V8.13798C330.855 9.42404 330.624 9.91705 330.416 10.4743L326.924 18.6194H324.566Z" fill="#2A72E5"/>
<path d="M306.067 21.1916L299.939 5.7373H303.107L307.477 17.8264L312.009 5.7373H315.015L308.726 21.1916H306.067Z" fill="#2A72E5"/>
<path d="M287.097 5.7373H297.826V8.00935H290.033V12.1677H297.341V14.3969H290.033V18.9196H297.988V21.1916H287.097V5.7373Z" fill="#2A72E5"/>
<path d="M276.351 14.5896V12.3604H284.213V14.5896H276.351Z" fill="#2A72E5"/>
<path d="M274.918 9.38088L269.97 14.2679L275.126 21.1913H271.403L267.935 16.1756L266.478 17.6761V21.1913H263.565V4.98682H266.478V14.3751L271.242 9.38088H274.918Z" fill="#2A72E5"/>
<path d="M260.904 9.38086V11.5243L254.661 18.8335H261.274V21.1913H250.823V19.3479L257.343 11.7387H251.285V9.38086H260.904Z" fill="#2A72E5"/>
</svg>
